<?xml version="1.0" standalone="no"?>
<!DOCTYPE svg PUBLIC "-//W3C//DTD SVG 20010904//EN"
 "http://www.w3.org/TR/2001/REC-SVG-20010904/DTD/svg10.dtd">
<svg version="1.0" xmlns="http://www.w3.org/2000/svg"
 width="1000.000000pt" height="400.000000pt" viewBox="0 0 1000.000000 400.000000"
 preserveAspectRatio="xMidYMid meet">

<g transform="translate(0.000000,400.000000) scale(0.100000,-0.100000)"
fill="#000000" stroke="none">
<path d="M0 2000 l0 -2000 5000 0 5000 0 0 2000 0 2000 -5000 0 -5000 0 0
-2000z m963 450 c113 -43 168 -118 168 -229 1 -87 -19 -139 -71 -191 l-45 -45
27 -26 c48 -47 49 -142 3 -197 -40 -48 -116 -74 -226 -80 -100 -5 -257 4 -276
16 -6 4 -15 111 -22 267 -6 143 -14 312 -18 377 l-6 116 54 10 c30 6 122 9
204 8 127 -3 159 -6 208 -26z m7430 14 c63 -21 140 -93 170 -157 84 -178 50
-415 -76 -541 -61 -60 -108 -80 -202 -84 -75 -4 -84 -2 -145 30 -141 73 -221
265 -191 457 25 160 103 263 231 302 45 13 165 10 213 -7z m-4716 -12 c9 -6
15 -49 18 -133 3 -68 8 -137 10 -152 5 -28 4 -28 -38 -22 -63 10 -125 -10
-169 -55 -36 -36 -38 -40 -38 -105 0 -65 2 -69 38 -105 47 -47 108 -60 165
-36 43 18 43 19 23 -83 -11 -62 -13 -65 -46 -74 -19 -5 -75 -7 -125 -5 -106 5
-178 33 -248 97 -149 137 -166 407 -36 554 80 91 170 126 329 126 58 1 111 -3
117 -7z m1740 0 c9 -5 15 -58 20 -160 l8 -152 -41 6 c-60 9 -122 -12 -166 -56
-36 -36 -38 -40 -38 -105 0 -65 2 -69 38 -105 47 -47 108 -60 165 -36 27 11
37 12 37 3 0 -22 -29 -149 -35 -155 -4 -4 -59 -7 -123 -7 -106 0 -122 3 -174
27 -31 14 -76 45 -101 67 -149 137 -166 407 -36 554 80 91 170 126 329 126 58
1 111 -3 117 -7z m3688 -15 c122 -40 192 -122 202 -236 8 -89 -17 -162 -77
-222 -27 -27 -56 -49 -65 -49 -23 0 -8 -24 68 -106 l65 -70 -96 -48 -97 -48
-28 33 c-16 19 -46 63 -68 99 l-39 65 0 -77 0 -78 -144 0 -144 0 -6 153 c-4
83 -11 235 -16 337 -13 254 -13 258 8 264 9 2 100 3 202 2 138 -2 198 -7 235
-19z m-7609 -159 c-3 -95 -9 -235 -13 -311 l-6 -138 98 7 c83 6 97 5 93 -7 -3
-8 -11 -40 -18 -72 l-11 -57 -223 0 -222 0 -13 288 c-6 158 -15 326 -18 375
l-6 87 173 0 173 0 -7 -172z m509 -106 c0 -152 3 -289 8 -304 9 -34 59 -62 95
-53 l25 6 -6 227 c-4 125 -10 266 -13 315 l-7 87 124 0 125 0 -4 -62 c-2 -35
-6 -200 -10 -368 l-7 -305 -50 -14 c-31 -9 -104 -14 -195 -15 -132 -1 -150 1
-197 23 -59 26 -115 82 -139 138 -30 71 -48 206 -70 511 l-6 92 163 0 164 0 0
-278z m901 261 c-2 -10 -8 -78 -11 -152 l-7 -134 -83 7 -82 7 -7 -32 c-14 -70
-15 -69 80 -69 l87 0 -8 -32 c-3 -18 -9 -50 -12 -71 l-6 -38 -73 6 c-70 7 -74
6 -74 -13 0 -11 -3 -34 -6 -52 l-7 -32 101 7 100 7 -17 -68 -17 -69 -221 -3
-221 -2 -6 102 c-6 118 -26 592 -26 626 l0 22 261 0 c243 0 260 -1 255 -17z
m1309 -188 c24 -110 61 -276 84 -369 22 -92 41 -170 41 -172 0 -2 -63 -4 -139
-4 l-139 0 -7 30 c-4 17 -10 30 -14 30 -10 0 -52 -29 -83 -58 l-27 -25 -24 54
-24 54 -13 -42 -13 -43 -74 0 c-40 0 -73 2 -73 5 0 2 20 86 45 186 38 154 87
384 111 522 l6 38 151 -3 150 -3 42 -200z m481 33 c-3 -95 -9 -235 -13 -311
l-6 -138 98 7 c83 6 97 5 93 -7 -3 -8 -11 -40 -18 -72 l-11 -57 -223 0 -222 0
-13 288 c-6 158 -15 326 -18 375 l-6 87 173 0 173 0 -7 -172z m1099 -106 c0
-152 3 -289 8 -304 9 -34 59 -62 95 -53 l25 6 -6 227 c-4 125 -10 266 -13 315
l-7 87 124 0 125 0 -4 -62 c-2 -35 -6 -200 -10 -368 l-7 -305 -50 -14 c-31 -9
-104 -14 -195 -15 -132 -1 -150 1 -197 23 -59 26 -115 82 -139 138 -30 71 -48
206 -70 511 l-6 92 163 0 164 0 0 -278z m721 106 c-3 -95 -9 -235 -13 -311
l-6 -138 98 7 c83 6 97 5 93 -7 -3 -8 -11 -40 -18 -72 l-11 -57 -223 0 -222 0
-13 288 c-6 158 -15 326 -18 375 l-6 87 173 0 173 0 -7 -172z m669 -33 c24
-110 61 -276 84 -369 22 -92 41 -170 41 -172 0 -2 -63 -4 -139 -4 l-139 0 -7
30 c-4 17 -10 30 -14 30 -10 0 -52 -29 -83 -58 l-27 -25 -24 54 -24 54 -13
-42 -13 -43 -74 0 c-40 0 -73 2 -73 5 0 2 20 86 45 186 38 154 87 384 111 522
l6 38 151 -3 150 -3 42 -200z m742 123 c-4 -46 -7 -114 -7 -152 l0 -68 -74 7
-73 6 -6 -68 c-4 -37 -9 -131 -12 -208 -9 -205 6 -185 -134 -185 l-119 0 -6
93 c-3 50 -9 153 -13 227 l-8 135 -71 -3 -71 -3 -7 47 c-3 26 -6 93 -6 150 l0
104 306 0 307 0 -6 -82z"/>
<path d="M830 2120 c0 -75 4 -79 54 -60 58 22 58 92 1 116 -19 8 -39 14 -45
14 -6 0 -10 -29 -10 -70z"/>
<path d="M820 1880 l0 -72 28 7 c41 10 62 34 62 70 0 38 -14 52 -58 61 l-32 7
0 -73z"/>
<path d="M8243 2138 c-31 -15 -48 -64 -47 -133 1 -63 18 -107 53 -139 29 -26
64 -10 89 41 41 80 35 179 -13 220 -28 25 -48 27 -82 11z"/>
<path d="M8980 2059 c0 -79 0 -80 23 -74 59 18 87 58 72 105 -6 20 -58 50 -85
50 -6 0 -10 -32 -10 -81z"/>
<path d="M3951 1997 c-13 -33 -51 -149 -51 -154 0 -4 49 3 98 13 28 6 26 22
-13 113 -23 56 -23 56 -34 28z"/>
<path d="M6921 1997 c-13 -33 -51 -149 -51 -154 0 -4 49 3 98 13 28 6 26 22
-13 113 -23 56 -23 56 -34 28z"/>
</g>
</svg>
